<?xml version="1.0" encoding="iso-8859-1"?>
<!-- Generator: Adobe Illustrator 18.0.0, SVG Export Plug-In . SVG Version: 6.00 Build 0)  -->
<!DOCTYPE svg PUBLIC "-//W3C//DTD SVG 1.1//EN" "http://www.w3.org/Graphics/SVG/1.1/DTD/svg11.dtd">
<svg version="1.1" id="Capa_1" xmlns="http://www.w3.org/2000/svg" xmlns:xlink="http://www.w3.org/1999/xlink" x="0px" y="0px"
	 viewBox="0 0 56.415 56.415" style="enable-background:new 0 0 56.415 56.415;" xml:space="preserve">
<g>
	<path d="M49.001,45.065c1.746-1.919,2.82-4.458,2.82-7.25c0-5.953-4.843-10.796-10.796-10.796s-10.796,4.843-10.796,10.796
		s4.843,10.796,10.796,10.796c2.441,0,4.688-0.824,6.499-2.196l6.001,6.277C53.721,52.897,53.984,53,54.248,53
		c0.249,0,0.497-0.092,0.691-0.277c0.398-0.382,0.413-1.015,0.031-1.414L49.001,45.065z M32.229,37.815
		c0-4.85,3.946-8.796,8.796-8.796s8.796,3.946,8.796,8.796s-3.946,8.796-8.796,8.796S32.229,42.664,32.229,37.815z"/>
	<polygon points="0,31.213 25.147,56.414 31.289,50.289 6.115,25.115 	"/>
	<path d="M45.3,0H31.295L7.531,23.702l22.762,22.762c-1.912-2.368-3.063-5.375-3.063-8.649c0-7.607,6.188-13.796,13.796-13.796
		c4.515,0,8.518,2.19,11.036,5.553l4.353-4.342V11.089L45.3,0z M42.43,16.87c-2.17,0-3.935-1.765-3.935-3.935S40.26,9,42.43,9
		s3.935,1.766,3.935,3.936S44.6,16.87,42.43,16.87z"/>
</g>
<g>
</g>
<g>
</g>
<g>
</g>
<g>
</g>
<g>
</g>
<g>
</g>
<g>
</g>
<g>
</g>
<g>
</g>
<g>
</g>
<g>
</g>
<g>
</g>
<g>
</g>
<g>
</g>
<g>
</g>
</svg>
